<?xml version="1.0"?>
<svg xmlns="http://www.w3.org/2000/svg" height="512px" viewBox="-34 0 510 510.28505" width="512px"><g><path d="m132.785156 153.421875c4.425782 1.390625 8.664063 3.3125 12.625 5.726563 3.535156-15.246094 8.976563-29.984376 16.199219-43.871094.757813-1.460938.863281-3.171875.289063-4.714844-.507813-1.390625-1.53125-2.53125-2.859376-3.1875l-.53125-.203125c-2.515624-1.054687-5.429687-.261719-7.058593 1.925781l-33.015625 42h1.96875c4.199218.332032 8.351562 1.109375 12.382812 2.324219zm0 0" data-original="#000000" class="active-path" data-old_color="#000000" fill="#A7781D"/><path d="m220.832031 185.359375c-17.890625-.054687-35.109375 6.792969-48.074219 19.121094-.007812 11.261719-1.652343 22.464843-4.890624 33.253906-.664063 2.585937-1.316407 5.164063-1.917969 7.722656-2.9375 12.878907-4.960938 23.835938-6.25 33.75 42.542969 4.441407 85.445312 4.230469 127.941406-.628906 2.519531-7.269531 3.808594-14.90625 3.8125-22.597656-.082031-38.96875-31.652344-70.539063-70.621094-70.621094zm37.359375 45.320313c4.183594 2.453124 5.605469 7.828124 3.179688 12.03125-2.425782 4.199218-7.789063 5.65625-12.007813 3.257812l-2.046875-1.183594v2.367188c0 4.875-3.953125 8.828125-8.828125 8.828125s-8.828125-3.953125-8.828125-8.828125v-2.367188l-2.046875 1.183594c-2.734375 1.601562-6.117187 1.617188-8.863281.039062-2.746094-1.578124-4.4375-4.503906-4.429688-7.671874.007813-3.167969 1.710938-6.089844 4.464844-7.65625l2.046875-1.183594-2.046875-1.183594c-4.1875-2.453125-5.609375-7.824219-3.179687-12.027344 2.425781-4.203125 7.789062-5.660156 12.007812-3.261718l2.046875 1.183593v-2.363281c0-4.878906 3.953125-8.828125 8.828125-8.828125s8.828125 3.949219 8.828125 8.828125v2.363281l2.046875-1.183593c2.730469-1.601563 6.113281-1.617188 8.859375-.039063 2.75 1.578125 4.4375 4.507813 4.433594 7.675781-.007812 3.167969-1.710938 6.089844-4.464844 7.652344l-2.050781 1.183594zm0 0" data-original="#000000" class="active-path" data-old_color="#000000" fill="#A7781D"/><path d="m88.691406 179.734375c-10.089844 9.5625-13.242187 23.785156-16.65625 38.84375l-1.5 6.585937c-2.765625 12.066407-4.757812 22.949219-6.117187 33.09375 10.585937 3.984376 21.398437 7.347657 32.378906 10.082032 2.660156-33.902344 9.515625-67.34375 20.410156-99.558594-10.574219-.214844-20.808593 3.71875-28.515625 10.953125zm0 0" data-original="#000000" class="active-path" data-old_color="#000000" fill="#A7781D"/><path d="m152.25 191.769531c-3.730469-8.003906-10.011719-14.542969-17.859375-18.59375-10.878906 32.039063-17.632813 65.335938-20.097656 99.082031 8.96875 1.8125 18.269531 3.394532 27.902343 4.75 1.359376-10.515624 3.488282-22.023437 6.570313-35.523437.632813-2.710937 1.3125-5.402344 2.011719-8.101563 3.324218-10.144531 4.777344-20.808593 4.28125-31.472656-.410156-3.503906-1.355469-6.925781-2.808594-10.140625zm0 0" data-original="#000000" class="active-path" data-old_color="#000000" fill="#A7781D"/><path d="m296.925781 182.191406c-2.550781 2.902344-4.675781 6.152344-6.3125 9.65625-1.050781 2.394532-1.8125 4.902344-2.277343 7.476563 17.984374 21.140625 24.820312 49.585937 18.40625 76.589843 7.457031-1.179687 14.738281-2.484374 21.847656-3.921874-2.484375-33.671876-9.238282-66.894532-20.101563-98.867188-4.375 2.292969-8.292969 5.363281-11.5625 9.066406zm0 0" data-original="#000000" class="active-path" data-old_color="#000000" fill="#A7781D"/><path d="m370.902344 218.585938c-3.382813-15.058594-6.578125-29.28125-16.640625-38.839844-7.714844-7.253906-17.964844-11.1875-28.550781-10.957032 10.855468 32.117188 17.707031 65.449219 20.402343 99.242188 10.945313-2.78125 21.722657-6.195312 32.273438-10.222656-1.464844-10.523438-3.378907-21.417969-5.992188-32.664063zm0 0" data-original="#000000" class="active-path" data-old_color="#000000" fill="#A7781D"/><path d="m212.003906 510.285156v-174.988281c-41.246094-.285156-82.335937-5.070313-122.542968-14.265625 4.546874 42.292969 26.128906 168.375 122.542968 189.253906zm0 0" data-original="#000000" class="active-path" data-old_color="#000000" fill="#A7781D"/><path d="m428.898438 271.417969.742187-.484375.988281-.636719c1.617188-1.355469 2.683594-3.253906 3-5.339844.554688-3.066406-.574218-6.199219-2.960937-8.203125-2.386719-2.007812-5.667969-2.582031-8.59375-1.507812l-33.863281-163.175782c-11.246094-46.382812-49.746094-81.140624-97.03125-87.605468-46.699219-5.953125-93.960938-5.953125-140.660157 0-23.085937 2.898437-44.71875 12.859375-61.933593 28.511718-17.429688 15.78125-29.695313 36.449219-35.195313 59.304688l-34.074219 155.542969c-.078125.367187-.136718.738281-.167968 1.109375l-.53125 6.003906c-.613282-.164062-1.242188-.261719-1.878907-.289062-3.847656-.007813-7.253906 2.476562-8.425781 6.140624-1.171875 3.664063.167969 7.664063 3.304688 9.890626.179687.105468.988281.617187 1.148437.730468 21.265625 13.589844 44.625 23.585938 69.136719 29.589844 45.390625 11.574219 92.089844 17.210938 138.929687 16.773438 46.84375.425781 93.546875-5.226563 138.9375-16.816407 24.507813-5.988281 47.863281-15.964843 69.128907-29.539062zm-133.730469 24.117187c-.371094.046875-.722657 0-1.101563.097656-48.113281 5.875-96.757812 5.949219-144.886718.210938h-.265626c-15.953124-1.976562-31.3125-4.570312-45.675781-7.730469-17.695312-3.796875-35.035156-9.113281-51.816406-15.890625-5.679687-2.355468-10.976563-4.851562-15.890625-7.496094l1.191406-13.621093 33.898438-154.78125c4.664062-19.359375 15.050781-36.871094 29.804687-50.246094 14.546875-13.230469 32.824219-21.648437 52.335938-24.101563 45.207031-5.761718 90.960937-5.761718 136.167969 0 39.964843 5.457032 72.527343 34.800782 82.09375 73.984376l34.984374 168.757812c-4.414062 2.359375-9.179687 4.644531-14.414062 6.886719-16.773438 6.886719-34.109375 12.308593-51.820312 16.199219-14.226563 3.097656-29.199219 5.691406-44.605469 7.730468zm0 0" data-original="#000000" class="active-path" data-old_color="#000000" fill="#A7781D"/><path d="m352.203125 321.03125c-40.207031 9.195312-81.296875 13.980469-122.542969 14.265625v174.960937c96.652344-21 118.148438-148.839843 122.542969-189.226562zm0 0" data-original="#000000" class="active-path" data-old_color="#000000" fill="#A7781D"/><path d="m297.480469 159.148438c3.945312-2.40625 8.164062-4.324219 12.570312-5.710938 4.046875-1.207031 8.210938-1.980469 12.421875-2.304688.671875-.050781 1.34375 0 2.011719 0l-32.90625-41.796874c-1.617187-2.300782-4.609375-3.183594-7.214844-2.128907l-.527343.203125c-2.867188 1.449219-4.019532 4.941406-2.585938 7.8125 7.226562 13.90625 12.679688 28.664063 16.230469 43.925782zm0 0" data-original="#000000" class="active-path" data-old_color="#000000" fill="#A7781D"/><path d="m430.109375 291.589844c-18.777344 10.71875-38.835937 19.007812-59.703125 24.664062-2.480469 27.859375-16.640625 137.941406-86.597656 188.726563 91.089844-20.648438 157.714844-84.871094 157.714844-160.726563-.09375-18.15625-3.980469-36.097656-11.414063-52.664062zm0 0" data-original="#000000" class="active-path" data-old_color="#000000" fill="#A7781D"/><path d="m71.257812 316.261719c-20.867187-5.679688-40.925781-13.984375-59.703124-24.714844-7.441407 16.582031-11.328126 34.535156-11.414063 52.707031 0 75.726563 66.394531 139.867188 157.246094 160.664063-69.1875-50.316407-83.445313-158.277344-86.128907-188.65625zm0 0" data-original="#000000" class="active-path" data-old_color="#000000" fill="#A7781D"/></g> </svg>
