<svg height="512pt" viewBox="-68 0 512 512" width="512pt" xmlns="http://www.w3.org/2000/svg"><path d="m7.5 235.710938c-4.144531 0-7.5-3.359376-7.5-7.5v-200.710938c0-15.164062 12.335938-27.5 27.5-27.5h321.71875c15.164062 0 27.5 12.335938 27.5 27.5v35.71875c0 4.144531-3.355469 7.5-7.5 7.5-4.140625 0-7.5-3.355469-7.5-7.5v-35.71875c0-6.894531-5.605469-12.5-12.5-12.5h-321.71875c-6.894531 0-12.5 5.605469-12.5 12.5v200.710938c0 4.140624-3.359375 7.5-7.5 7.5zm0 0"/><path d="m349.21875 512h-198.058594c-4.144531 0-7.5-3.355469-7.5-7.5s3.355469-7.5 7.5-7.5h198.058594c6.894531 0 12.5-5.605469 12.5-12.5v-386.761719c0-4.140625 3.359375-7.5 7.5-7.5 4.144531 0 7.5 3.359375 7.5 7.5v386.761719c0 15.164062-12.335938 27.5-27.5 27.5zm0 0"/><path d="m116.636719 512h-89.136719c-15.164062 0-27.5-12.335938-27.5-27.5v-221.769531c0-4.140625 3.355469-7.5 7.5-7.5s7.5 3.359375 7.5 7.5v221.769531c0 6.894531 5.605469 12.5 12.5 12.5h89.140625c4.140625 0 7.5 3.355469 7.5 7.5s-3.359375 7.5-7.503906 7.5zm0 0"/><path d="m86.871094 134.433594c-20.699219 0-37.542969-16.839844-37.542969-37.542969 0-20.699219 16.84375-37.539063 37.542969-37.539063 20.699218 0 37.542968 16.839844 37.542968 37.539063 0 20.703125-16.84375 37.542969-37.542968 37.542969zm0-60.082032c-12.429688 0-22.542969 10.109376-22.542969 22.539063s10.113281 22.542969 22.542969 22.542969c12.429687 0 22.542968-10.113282 22.542968-22.542969s-10.113281-22.539063-22.542968-22.539063zm0 0"/><path d="m319.890625 134.433594h-182.515625c-4.140625 0-7.5-3.355469-7.5-7.5 0-4.144532 3.359375-7.5 7.5-7.5h182.515625c4.144531 0 7.5 3.355468 7.5 7.5 0 4.144531-3.355469 7.5-7.5 7.5zm0 0"/><path d="m86.871094 240.507812c-20.699219 0-37.542969-16.84375-37.542969-37.542968 0-20.703125 16.84375-37.542969 37.542969-37.542969 20.699218 0 37.542968 16.839844 37.542968 37.542969 0 20.699218-16.84375 37.542968-37.542968 37.542968zm0-60.085937c-12.429688 0-22.542969 10.113281-22.542969 22.542969 0 12.429687 10.113281 22.542968 22.542969 22.542968 12.429687 0 22.542968-10.113281 22.542968-22.542968 0-12.429688-10.113281-22.542969-22.542968-22.542969zm0 0"/><path d="m319.890625 240.507812h-182.515625c-4.140625 0-7.5-3.359374-7.5-7.5 0-4.144531 3.359375-7.5 7.5-7.5h182.515625c4.144531 0 7.5 3.355469 7.5 7.5 0 4.140626-3.355469 7.5-7.5 7.5zm0 0"/><path d="m86.871094 346.578125c-20.699219 0-37.542969-16.839844-37.542969-37.542969 0-20.699218 16.84375-37.542968 37.542969-37.542968 20.699218 0 37.542968 16.84375 37.542968 37.542968 0 20.703125-16.84375 37.542969-37.542968 37.542969zm0-60.085937c-12.429688 0-22.542969 10.113281-22.542969 22.542968 0 12.429688 10.113281 22.542969 22.542969 22.542969 12.429687 0 22.542968-10.113281 22.542968-22.542969 0-12.429687-10.113281-22.542968-22.542968-22.542968zm0 0"/><path d="m319.890625 346.578125h-182.515625c-4.140625 0-7.5-3.355469-7.5-7.5s3.359375-7.5 7.5-7.5h182.515625c4.144531 0 7.5 3.355469 7.5 7.5s-3.355469 7.5-7.5 7.5zm0 0"/><path d="m86.871094 452.648438c-20.699219 0-37.542969-16.839844-37.542969-37.539063 0-20.703125 16.84375-37.542969 37.542969-37.542969 20.699218 0 37.542968 16.839844 37.542968 37.542969 0 20.699219-16.84375 37.539063-37.542968 37.539063zm0-60.082032c-12.429688 0-22.542969 10.113282-22.542969 22.542969s10.113281 22.539063 22.542969 22.539063c12.429687 0 22.542968-10.109376 22.542968-22.539063s-10.113281-22.542969-22.542968-22.542969zm0 0"/><path d="m319.890625 452.648438h-182.515625c-4.140625 0-7.5-3.355469-7.5-7.5 0-4.140626 3.359375-7.5 7.5-7.5h182.515625c4.144531 0 7.5 3.359374 7.5 7.5 0 4.144531-3.355469 7.5-7.5 7.5zm0 0"/></svg>