<svg height="512pt" viewBox="-96 0 512 512" width="512pt" xmlns="http://www.w3.org/2000/svg"><path d="m270 0h-220c-27.570312 0-50 22.429688-50 50v412c0 27.570312 22.429688 50 50 50h220c27.570312 0 50-22.429688 50-50v-412c0-27.570312-22.429688-50-50-50zm-38.144531 20-12.628907 20h-118.453124l-12.628907-20zm68.144531 442c0 16.542969-13.457031 30-30 30h-220c-16.542969 0-30-13.457031-30-30v-412c0-16.542969 13.457031-30 30-30h14.488281l22.320313 35.339844c1.832031 2.902344 5.023437 4.660156 8.453125 4.660156h129.476562c3.429688 0 6.621094-1.757812 8.453125-4.660156l22.320313-35.339844h14.488281c16.542969 0 30 13.457031 30 30zm0 0"/><path d="m140 84h-90c-5.523438 0-10 4.476562-10 10v50c0 5.523438 4.476562 10 10 10h90c5.523438 0 10-4.476562 10-10v-50c0-5.523438-4.476562-10-10-10zm-10 50h-70v-30h70zm0 0"/><path d="m270 84h-90c-5.523438 0-10 4.476562-10 10v50c0 5.523438 4.476562 10 10 10h90c5.523438 0 10-4.476562 10-10v-50c0-5.523438-4.476562-10-10-10zm-10 50h-70v-30h70zm0 0"/><path d="m140 174h-90c-5.523438 0-10 4.476562-10 10s4.476562 10 10 10h90c5.523438 0 10-4.476562 10-10s-4.476562-10-10-10zm0 0"/><path d="m270 174h-90c-5.523438 0-10 4.476562-10 10s4.476562 10 10 10h90c5.523438 0 10-4.476562 10-10s-4.476562-10-10-10zm0 0"/><path d="m140 224h-90c-5.523438 0-10 4.476562-10 10v50c0 5.523438 4.476562 10 10 10h90c5.523438 0 10-4.476562 10-10v-50c0-5.523438-4.476562-10-10-10zm-10 50h-70v-30h70zm0 0"/><path d="m270 224h-90c-5.523438 0-10 4.476562-10 10v50c0 5.523438 4.476562 10 10 10h90c5.523438 0 10-4.476562 10-10v-50c0-5.523438-4.476562-10-10-10zm-10 50h-70v-30h70zm0 0"/><path d="m140 314h-90c-5.523438 0-10 4.476562-10 10s4.476562 10 10 10h90c5.523438 0 10-4.476562 10-10s-4.476562-10-10-10zm0 0"/><path d="m270 314h-90c-5.523438 0-10 4.476562-10 10s4.476562 10 10 10h90c5.523438 0 10-4.476562 10-10s-4.476562-10-10-10zm0 0"/><path d="m140 364h-90c-5.523438 0-10 4.476562-10 10v78c0 5.523438 4.476562 10 10 10h90c5.523438 0 10-4.476562 10-10v-78c0-5.523438-4.476562-10-10-10zm-10 78h-70v-58h70zm0 0"/><path d="m270 362h-90c-5.523438 0-10 4.476562-10 10s4.476562 10 10 10h90c5.523438 0 10-4.476562 10-10s-4.476562-10-10-10zm0 0"/><path d="m270 402c-5.511719 0-10 4.488281-10 10s4.488281 10 10 10 10-4.488281 10-10-4.488281-10-10-10zm0 0"/><path d="m180 422h50c5.511719 0 10-4.488281 10-10s-4.488281-10-10-10h-50c-5.511719 0-10 4.488281-10 10s4.488281 10 10 10zm0 0"/><path d="m180 442c-5.511719 0-10 4.488281-10 10s4.488281 10 10 10 10-4.488281 10-10-4.488281-10-10-10zm0 0"/><path d="m270 442h-50c-5.511719 0-10 4.488281-10 10s4.488281 10 10 10h50c5.511719 0 10-4.488281 10-10s-4.488281-10-10-10zm0 0"/></svg>