<?xml version="1.0"?>
<svg xmlns="http://www.w3.org/2000/svg" xmlns:xlink="http://www.w3.org/1999/xlink" version="1.1" id="Capa_1" x="0px" y="0px" viewBox="0 0 416.684 416.684" style="enable-background:new 0 0 416.684 416.684;" xml:space="preserve" width="512px" height="512px"><g><g>
	<path d="M316.777,252.786l-1.703-2.872c-1.771-2.985-1.933-6.715-0.451-9.84l7.965-9.813c1.74-2.144,1.413-5.293-0.73-7.033   c-2.143-1.738-5.292-1.414-7.033,0.731l-8.306,10.233c-0.206,0.253-0.387,0.527-0.539,0.815   c-3.306,6.258-3.116,13.925,0.494,20.009l1.702,2.871c0.935,1.575,2.598,2.451,4.306,2.451c0.867,0,1.745-0.226,2.545-0.7   C317.402,258.229,318.186,255.161,316.777,252.786z" data-original="#000000" class="active-path" data-old_color="#000000" fill="#FFFFFF"/>
	<path d="M181.431,276.864c0.504,0.16,1.014,0.236,1.515,0.236c2.12,0,4.089-1.36,4.765-3.488c0.836-2.632-0.62-5.443-3.252-6.279   c-43.12-13.692-66.682-37.99-78.855-55.962c-13.157-19.425-16.267-35.896-16.328-36.229c-0.479-2.718-3.071-4.532-5.784-4.059   c-2.721,0.476-4.54,3.066-4.065,5.786c0.13,0.743,3.344,18.437,17.595,39.658C110.075,235.97,135.317,262.22,181.431,276.864z" data-original="#000000" class="active-path" data-old_color="#000000" fill="#FFFFFF"/>
	<path d="M355.137,95.927c-39.269-29.611-91.401-45.918-146.795-45.918S100.815,66.316,61.547,95.927   C21.857,125.855,0,165.778,0,208.342s21.857,82.487,61.547,112.416c39.269,29.611,91.4,45.918,146.795,45.918   s107.526-16.307,146.795-45.918c39.689-29.929,61.547-69.852,61.547-112.416S394.826,125.855,355.137,95.927z M208.342,356.675   C98.976,356.675,10,290.133,10,208.342S98.976,60.008,208.342,60.008s198.342,66.542,198.342,148.333   S317.708,356.675,208.342,356.675z" data-original="#000000" class="active-path" data-old_color="#000000" fill="#FFFFFF"/>
	<path d="M295.545,107.467l-10.023-7.425c-4.917-3.643-11.05-4.613-16.587-3.078l0.001-0.003   c-19.234-5.941-39.622-8.953-60.596-8.953c-56.062,0-108.424,22.413-137.53,58.655c-1.429-0.174-2.774-0.338-4.015-0.487   c-3.982-0.483-7.999,0.77-11.008,3.435c-3.017,2.672-4.75,6.518-4.754,10.551c-0.015,13.433,1.557,25.764,4.379,37.078   c-2.869,0.822-6.719,1.901-10.597,2.913c-4.942,1.29-9.151,4.612-11.547,9.115c-2.406,4.521-2.81,9.896-1.107,14.745   c17.665,50.317,49.293,85.714,94.006,105.207c30.973,13.503,61.769,16.257,81.729,16.257c3.694,0,7.02-0.095,9.904-0.233   c5.024-0.24,9.614-2.458,12.923-6.246c2.032-2.327,3.406-5.055,4.068-7.974c36.328-4.557,69.648-18.541,94.188-39.606   c26.034-22.346,40.371-51.141,40.371-81.08C369.351,168.519,341.767,130.099,295.545,107.467z M279.568,108.078l21.685,16.063   c2.549,1.888,3.097,5.505,1.221,8.063l-3.608,4.919l-7.964-5.153c-4.174-2.701-9.275-3.345-13.987-1.771   c-4.716,1.575-8.401,5.156-10.113,9.822l-1.403,3.823c-4.393-4.129-6.395-10.283-5.146-16.303l0.338-1.627   c0.588-2.834,0.126-5.727-1.21-8.208l7.959-8.514C270.542,105.764,275.799,105.285,279.568,108.078z M226.623,260.851   c-0.081-1.333,0.482-2.642,1.506-3.5l22.901-19.197l-4.799,31.953l-18.291,12.471L226.623,260.851z M250.799,123.88l-0.338,1.627   c-0.771,3.718-0.737,7.464-0.013,11.041L223.944,147l4.948-19.989c0.326-1.319,1.4-2.33,2.737-2.577l16.694-3.083   c0.971-0.177,1.616,0.303,1.912,0.606C250.532,122.261,250.999,122.914,250.799,123.88z M254.081,145.668   c1.913,3.06,4.429,5.777,7.5,7.935l-1.241,4.028l-1.172-0.123c-3.817-0.4-7.544,0.732-10.495,3.187   c-1.581,1.315-2.816,2.924-3.68,4.718l-16.696-9.414L254.081,145.668z M273.705,277.109l-2.915,3.118l-14.522-9.626l3.938-26.218   l14.414,21.744C276.905,269.572,276.528,274.089,273.705,277.109z M260.791,227.167l6.056-21.196l6.768-7.659l-1.303,6.05   c-1.266,5.877,1.026,12.005,5.84,15.612c0.898,0.674,1.951,1,2.994,1c1.521,0,3.023-0.691,4.005-2.002   c1.656-2.21,1.207-5.344-1.003-7c-1.697-1.272-2.507-3.434-2.061-5.505l3.426-15.908l10.85,6.864   c2.652,1.678,4.171,4.667,3.961,7.799l-0.776,11.653l-33.859,17.679L260.791,227.167z M284.023,177.783   c-2.072-1.311-4.794-0.925-6.42,0.915l-19,21.5c-0.493,0.559-0.855,1.221-1.061,1.938l-0.129,0.451l-0.959-0.844   c-1.524-1.341-3.222-2.387-5.017-3.148l2.16-27.373c0.088-1.115,0.61-2.123,1.47-2.837c0.86-0.716,1.948-1.045,3.059-0.929   l26.737,2.798c1.983,0.208,3.581,1.659,3.977,3.613l1.62,7.99L284.023,177.783z M237.849,172.866l5.351,3.017l-1.694,21.463   c-1.875,0.287-3.729,0.86-5.496,1.743l-6.262,3.131C229.748,202.219,237.819,173.087,237.849,172.866z M225.383,217.742   c0.438-1.612,1.504-2.911,2.998-3.658l12.102-6.051c3.092-1.546,6.771-1.07,9.365,1.215l4.525,3.982l-3.409,11.93l-14.95,12.532   l-9.903-15.277C225.202,221.014,224.943,219.354,225.383,217.742z M231.174,292.476l19.716-13.442l12.976,8.601l-17.54,18.765   c-0.81,0.866-1.905,1.343-3.084,1.343c-1.459,0-2.796-0.731-3.578-1.957L231.174,292.476z M281.01,283.938   c3.219-3.443,4.926-7.803,5.081-12.234l15.835,3.318c-1.3,5.64-4.828,10.544-9.799,13.562c-5.248,3.187-11.62,3.977-17.49,2.172   L281.01,283.938z M283.113,260.862c-0.055-0.086-11.869-17.928-11.869-17.928l35.421-18.494c1.545-0.807,2.559-2.36,2.675-4.1   l0.453-6.798l3.983,0.133c4.589,0.153,8.841,2.531,11.375,6.361l11.382,17.205c1.724,2.605,1.735,5.979,0.029,8.597l-12.5,19.187   c-1.539,2.362-4.313,3.516-7.076,2.937L283.113,260.862z M314.108,203.681l-3.802-0.127c-0.338-5.733-3.321-11.016-8.136-14.269   l-0.767-3.784l19.377,10.11c1.357,0.708,2.789,1.176,4.25,1.455l-4.504,7.719C318.466,204.139,316.312,203.754,314.108,203.681z    M335.478,178.89l-2.746,5.377c-0.569,1.115-1.455,2.069-2.594,2.589c-1.546,0.706-3.257,0.658-4.731-0.11l-23.224-12.117   c-1.336-0.697-2.535-1.628-3.541-2.749l0,0c-1.268-6.258-6.386-10.909-12.736-11.573l-15.307-1.602l5.522-15.052   c0.545-1.485,1.56-2.789,2.955-3.535c2.068-1.107,4.483-0.99,6.394,0.247l48.005,31.062   C335.966,173.039,336.827,176.248,335.478,178.89z M208.34,98.008c17.166,0,33.904,2.121,49.875,6.3l-6.829,7.305l0.027,0.025   c-1.588-0.363-3.251-0.426-4.905-0.121l-16.694,3.083c-5.189,0.958-9.361,4.886-10.629,10.008l-5.736,23.174   c-1.448,5.852,1.208,12.007,6.459,14.967l6.279,3.54c-4.739-0.605-11.546-1.475-19.729-2.518l0.892-31.622   c0.075-2.676-1.971-4.937-4.641-5.128l-10.034-0.718c0.576-3.89,0.854-7.653,0.67-11.064c-0.109-2.011-1.414-3.761-3.312-4.438   c-7.313-2.612-15.948-4.151-16.313-4.215c-2.46-0.437-4.877,1.026-5.636,3.414c-0.022,0.07-1.844,5.738-4.826,10.624l-5.171-2.585   c-2.09-1.045-4.626-0.504-6.106,1.306c-14.85,18.151-35.812,29.594-41.107,32.308c-10.379-1.305-20.013-2.511-28.202-3.526   C110.59,117.024,157.792,98.008,208.34,98.008z M161.898,131.123c-2.458,7.578-7.955,20.044-16.136,24.933   c-6.189-0.784-12.379-1.567-18.456-2.334c8.643-5.506,20.036-13.917,29.813-24.988L161.898,131.123z M172.709,129.689   c0.353-1.451,0.027-2.93-0.795-4.083c1.773-2.946,3.17-5.986,4.134-8.344c2.068,0.46,4.696,1.098,7.322,1.881   c-0.559,13.617-7.885,32.637-11.052,40.282c-4.384-0.557-8.865-1.126-13.397-1.701   C168.479,146.647,172.497,130.563,172.709,129.689z M190.684,136.186l6.534,0.468l-0.729,25.847   c-4.397-0.56-9.055-1.153-13.896-1.769C184.927,154.91,188.322,145.709,190.684,136.186z M62.417,157.097   c0.882-0.782,2.016-1.132,3.181-0.993c32.938,3.972,135.525,17.064,160.939,20.312l-34.641,124.742   c-0.292,1.052-0.976,1.926-1.924,2.461c-0.947,0.534-2.046,0.668-3.098,0.374c-29.55-8.263-125.953-43.056-125.842-143.818   C61.034,158.979,61.526,157.887,62.417,157.097z M223.192,332.419c-1.503,1.72-3.587,2.728-5.87,2.837   c-17.593,0.84-52.315-0.013-87.159-15.203c-42.062-18.337-71.859-51.764-88.566-99.352c-0.79-2.252-0.613-4.645,0.5-6.736   c1.103-2.072,2.965-3.542,5.244-4.136c3.975-1.037,7.918-2.143,10.852-2.983c23.713,72.26,99.752,99.439,125.989,106.776   c1.26,0.352,2.541,0.526,3.813,0.526c2.391,0,4.753-0.615,6.892-1.822c3.278-1.849,5.638-4.866,6.645-8.495l19.625-70.675   l7.136,11.008l-6.587,5.522c-3.442,2.886-5.335,7.285-5.064,11.769l1.574,25.968c0.146,2.411,0.91,4.76,2.208,6.792l2.32,3.637   l2.473,28.361C225.415,328.494,224.696,330.698,223.192,332.419z M322.466,283.831c-22.785,19.559-53.763,32.621-87.673,37.094   l-0.556-6.38c2.502,2.046,5.659,3.198,9.005,3.198c3.978,0,7.667-1.603,10.389-4.514l13.414-14.351l4.617,1.426   c3.04,0.939,6.173,1.401,9.293,1.401c5.712,0,11.382-1.551,16.361-4.573c7.338-4.454,12.526-11.716,14.393-20.059l3.225,0.676   c1.171,0.246,2.342,0.365,3.5,0.365c5.593,0,10.851-2.788,14.006-7.629l12.5-19.187c3.883-5.959,3.855-13.643-0.068-19.574   l-11.382-17.205c-1.198-1.812-2.629-3.424-4.229-4.826l15.122-26.254c3.69-7.226,1.335-16-5.478-20.407l-31.63-20.467l3.262-4.447   c1.844-2.515,2.817-5.406,2.999-8.315c29.074,20.969,45.814,49.818,45.814,80.537C359.351,237.314,346.252,263.414,322.466,283.831   z" data-original="#000000" class="active-path" data-old_color="#000000" fill="#FFFFFF"/>
	<path d="M127.597,205.478c4.057,5.891,9.935,9.55,15.339,9.55c2.23,0,4.328-0.633,6.065-1.83c3.256-2.242,4.977-6.235,4.719-10.956   c-0.213-3.89-1.739-8.079-4.299-11.795c-4.057-5.891-9.935-9.55-15.339-9.55c-2.23,0-4.328,0.633-6.066,1.83   c-3.256,2.242-4.976,6.235-4.718,10.955C123.51,197.572,125.037,201.761,127.597,205.478z M133.688,190.963   c0.048-0.033,0.188-0.066,0.395-0.066c1.7,0,4.767,1.83,7.103,5.222c1.509,2.19,2.438,4.621,2.55,6.669   c0.076,1.394-0.271,2.081-0.405,2.174c-0.048,0.033-0.188,0.065-0.394,0.065c-1.7,0-4.767-1.83-7.104-5.223   c-1.508-2.19-2.438-4.621-2.549-6.668C133.207,191.743,133.553,191.055,133.688,190.963z" data-original="#000000" class="active-path" data-old_color="#000000" fill="#FFFFFF"/>
	<path d="M173.524,213.544c3.325,4.826,8.185,7.825,12.684,7.825c1.929,0,3.749-0.551,5.263-1.594   c2.829-1.948,4.315-5.375,4.08-9.402c-0.187-3.172-1.431-6.576-3.503-9.585c-3.324-4.827-8.184-7.825-12.682-7.825   c-1.93,0-3.75,0.551-5.264,1.594c-2.828,1.948-4.315,5.375-4.08,9.402C170.208,207.129,171.452,210.534,173.524,213.544z    M183.812,206.459c1.408,2.043,1.765,3.814,1.767,4.761c-0.945-0.363-2.483-1.412-3.817-3.349   c-1.408-2.044-1.764-3.814-1.766-4.762C180.939,203.473,182.478,204.522,183.812,206.459z" data-original="#000000" class="active-path" data-old_color="#000000" fill="#FFFFFF"/>
</g></g> </svg>
